<?xml version="1.0" encoding="utf-8" ?><svg xmlns="http://www.w3.org/2000/svg" xmlns:xlink="http://www.w3.org/1999/xlink" width="1024" height="1024" viewBox="0 0 1024 1024"><path fill="#7E0A1F" d="M163.846 431.742C176.734 431.965 190.41 431.562 203.403 431.53L279.173 431.509C289.727 431.498 319.452 430.478 330.637 432.808C334.57 433.627 343.35 449.583 345.525 454.198C355.518 475.4 364.35 497.526 373.787 519.146L431.778 651.216L461.861 718.874C465.716 727.41 482.166 763.24 483.283 770.205C480.54 770.408 477.144 766.186 475.185 764.212C460.802 749.712 446.978 734.648 432.98 719.777L330.879 611.099L219.267 492.734C204.842 477.65 190.543 462.445 176.373 447.121C173.44 443.904 165.46 435.359 163.846 431.742Z"/><path fill="#7E0A1F" d="M714.281 431.585C758.376 430.687 802.849 432.102 846.973 431.65C851.616 431.602 856.202 431.663 860.852 431.502C856.615 437.756 842.168 452.759 836.655 458.656L786.707 511.556L606.487 702.597C582.691 727.512 557.55 753.843 534.364 779.237C547.211 755.787 559.851 729.074 571.654 705.051C599.999 646.617 627.95 587.994 655.505 529.184L681.67 473.789C686.186 464.159 690.746 454.07 695.606 444.623C698.332 439.323 708.684 432.999 714.281 431.585Z"/><path fill="#D63748" d="M541.51 228.427C563.092 227.428 587.394 227.678 609.174 227.658L706.704 227.674L741.747 227.825C744.843 227.823 754.003 226.436 755.636 228.949L755.197 230.858C752.827 240.335 747.437 253.971 743.995 263.445C738.135 279.969 732.168 296.454 726.095 312.9L706.032 367.643C703.149 375.583 700.72 383.945 697.485 391.724C696.762 393.463 695.879 395.578 694.17 396.567C692.692 397.421 691.032 397.185 689.516 396.617C679.861 393 643.705 350.115 635.26 340.45C618.982 322.67 602.998 303.268 586.851 285.194C578.218 275.621 569.662 265.979 561.184 256.268C553.093 247.059 545.54 240.264 541.51 228.427Z"/><path fill="#7E0A1F" d="M635.26 340.45C644.266 333.348 653.534 326.974 662.722 319.553C679.804 305.486 696.258 290.674 712.038 275.161C721.991 265.415 731.793 255.515 741.439 245.466C744.705 242.043 752.159 233.338 755.197 230.858C752.827 240.335 747.437 253.971 743.995 263.445C738.135 279.969 732.168 296.454 726.095 312.9L706.032 367.643C703.149 375.583 700.72 383.945 697.485 391.724C696.762 393.463 695.879 395.578 694.17 396.567C692.692 397.421 691.032 397.185 689.516 396.617C679.861 393 643.705 350.115 635.26 340.45Z"/><path fill="#D63748" d="M419.693 419.021L393.72 419.087C389.053 419.094 375.466 419.773 372.909 416.569C364.241 405.707 385.612 386.878 391.737 380.239L421.716 347.748L473.171 291.658C484.246 279.497 495.155 267.1 506.529 255.222C522.315 238.735 531.233 251.95 542.104 263.88L560.039 283.565C580.43 306.059 600.934 328.451 621.55 350.74C612.032 357.149 603.441 362.768 593.644 368.626C588.826 371.507 572.182 380.247 568.79 383.073C559.537 383.546 546.543 383.155 536.992 383.142L476.758 383.065C465.407 383.051 451.757 382.329 440.674 383.904C422.942 386.424 416.126 402.811 419.693 419.021Z"/><path fill="#D63748" d="M284.983 227.757C290.383 228.231 302.799 227.865 308.733 227.855L355.151 227.81L499.443 227.616C495.07 239.194 473.603 261.541 464.739 271.524L424.217 316.908C415.081 326.497 360.275 389.119 353.492 392.103C351.859 392.822 349.866 392.655 348.312 391.807C346.698 390.927 346.006 389.04 345.322 387.429C339.887 374.637 335.236 361.362 330.308 348.361L306.449 285.821L292.772 249.971C290.558 244.157 286.229 233.524 284.983 227.757Z"/><path fill="#D63748" d="M263.316 244.388C267.075 244.524 267.942 246.976 269.354 250.223C279.752 274.143 288.647 298.714 298.177 322.978C304.777 339.752 311.283 356.563 317.694 373.411C321.132 382.449 325.703 393.614 328.391 402.661C327.025 407.345 325.158 414.647 321.922 418.097C317.395 420.337 238.298 419.188 226.827 419.204C221.799 419.614 211.067 419.209 205.565 419.214C190.71 419.224 175.856 419.324 161.002 419.515L232.889 295.52L250.312 265.214C253.19 260.203 259.847 247.81 263.316 244.388Z"/><path fill="#7E0A1F" d="M767.085 241.211C770.006 241.716 771.079 242.21 772.653 244.818C781.532 259.533 788.962 275.629 796.649 290.992L837.907 373.049C844.861 386.801 853.966 406.051 861.782 419.095C842.869 418.732 823.104 419.011 804.125 419L750.166 419.033C741.048 419.046 731.853 418.973 722.796 419.003C714.656 419.03 706.482 410.522 708.867 402.921C711.767 393.678 715.43 384.054 718.699 374.822L739.976 315.14L757.272 265.611C759.323 259.877 764.024 245.923 767.085 241.211Z"/><path fill="#7E0A1F" d="M576.09 617.256C581.401 617.206 586.712 617.241 592.022 617.361C588.687 625.748 583.165 636.717 579.293 645.116L556.075 696.024L533.932 744.602C527.029 759.709 521.198 773.034 512.828 787.35C507.32 777.287 498.834 757.841 494.316 747.123C475.642 704.991 454.901 659.993 437.722 617.401C452.127 616.809 470.405 617.301 485.122 617.294L576.09 617.256Z"/><path fill="#7E0A1F" d="M369.437 431.6C375.226 431.189 384.323 431.463 390.391 431.475L427.874 431.519C431.52 433.927 435.989 436.443 440.378 436.937C453.247 438.385 468.18 438.074 481.241 437.912C500.076 437.679 519.832 438.171 538.506 437.433C529.702 447.871 519.003 459.024 509.653 469.107C497.644 482.168 485.549 495.151 473.368 508.053C457.191 527.831 432.67 548.985 417.231 569.313C405.434 542.214 394.002 514.957 382.938 487.549C376.908 472.885 370.586 458.206 365.225 443.3C363.267 437.853 364.449 434.252 369.437 431.6Z"/><path fill="#7E0A1F" d="M619.803 431.555C628.966 431.517 662.557 430.357 669.343 432.581C671.058 433.143 672.281 434.245 672.996 435.91C674.058 438.387 673.012 441.306 672.21 443.719C668.892 453.697 663.522 463.546 659.118 473.135L627.893 540.16C624.417 547.679 617.302 561.842 614.684 568.762L614.511 569.229C605.809 562.777 596.473 563.378 586.186 563.325C576.168 563.274 566.143 563.317 556.125 563.328C535.887 563.252 515.649 563.323 495.412 563.541C518.302 537.972 542.983 513.018 566.521 488.003L600.791 451.763C606.609 445.565 613.822 437.262 619.803 431.555Z"/><path fill="#7E0A1F" d="M568.79 383.073C572.182 380.247 588.826 371.507 593.644 368.626C603.441 362.768 612.032 357.149 621.55 350.74C630.54 360.691 671.083 402.939 670.726 413.819C670.69 414.915 670.55 415.611 669.77 416.427C665.703 420.68 632.952 418.963 626.072 418.951C629.54 375.167 599.559 384.383 568.79 383.073Z"/></svg>