<?xml version="1.0" encoding="utf-8" ?><svg xmlns="http://www.w3.org/2000/svg" xmlns:xlink="http://www.w3.org/1999/xlink" width="2392" height="462" viewBox="150 543 2392 462"><path fill="#7F0621" d="M1244.13 594.441C1260.11 593.861 1276.71 594.36 1292.6 594.037C1335.4 593.167 1367.56 594.512 1403.4 622.274C1432.84 645.073 1449.97 681.059 1453.86 717.654C1458.85 764.758 1455.33 821.924 1424.08 860.039C1395.62 894.751 1363.67 906.589 1321.46 911.398C1308.4 912.3 1294.44 911.688 1281.48 912.106C1238.17 913.505 1198.75 909.505 1163.14 881.543C1135.34 859.707 1116.25 822.831 1113.11 787.511C1108.79 738.903 1109.24 683.191 1142.19 643.73C1171.29 608.892 1201.56 598.919 1244.13 594.441ZM1313.59 836.704C1372.37 833.968 1383.61 792.845 1381.45 740.793C1380.59 720.15 1373.4 696.903 1357.4 682.821C1351.42 677.567 1344.35 673.707 1336.69 671.521C1319.32 666.555 1272.19 667.686 1252.44 668.445C1191.57 672.661 1182.94 715.089 1185.42 767.789C1189.06 845.001 1252.99 838.78 1313.59 836.704Z"/><path fill="#7F0621" d="M2328.37 594.379C2329.74 594.301 2331.12 594.249 2332.5 594.222C2347.55 593.933 2363.68 594.283 2378.54 593.933C2424.86 592.839 2460.34 596.948 2495.65 630.972C2538.17 671.942 2538.01 727.019 2536.72 781.728C2536.37 800.513 2536.66 817.037 2536.98 836.049C2537.56 871.113 2540.45 910.82 2493.02 911.682C2455.74 912.359 2460 852.387 2460.37 825.959L2380.44 826.193C2365.03 826.253 2336.2 827.932 2322.89 824.257C2282.55 813.119 2283.21 754.101 2330.22 751.544C2344.54 750.765 2357.28 750.622 2371.03 750.656L2434.57 750.87L2461.56 750.906C2462.94 670.319 2433.39 669.499 2363.53 669.006C2274.56 668.377 2270.73 693.575 2270.51 775.117C2270.42 797.254 2270.51 819.391 2270.78 841.526C2270.98 860.59 2273.56 879.884 2261.98 896.293C2241.87 924.796 2199.92 910.456 2197.86 877.295C2196.47 854.896 2197.04 830.633 2197.23 807.822C2197.71 750.973 2188.79 689.184 2227.91 641.748C2254.24 609.66 2289.23 598.311 2328.37 594.379Z"/><path fill="#7F0621" d="M1881.45 594.38C1933.02 592.37 1986.8 595.961 2037.91 593.838C2157.84 588.855 2218.89 741.859 2106.04 805.445C2128.16 827.186 2178.3 867.214 2147.89 899.871C2114.97 935.234 2079.35 887.964 2055.73 863.786C2040.87 848.856 2026.16 833.775 2011.6 818.547C2003.17 817.846 1989.48 818.349 1980.6 818.397L1925.08 818.699C1925.04 832.607 1925.15 846.515 1925.42 860.421C1925.92 876.519 1925.52 886.486 1915.09 899.385C1896.4 925.187 1854.65 909.802 1852.14 880.21C1848.68 839.266 1851.71 794.841 1850.53 753.521C1850.02 735.737 1850.29 707.935 1862.49 694.365C1874.23 681.297 1902.57 684.506 1913.86 696.829C1927.01 710.061 1924.94 733.218 1924.92 750.499C1944.26 751.81 2047.82 752.556 2061 748.466C2070.88 745.398 2077.61 738.625 2082.19 729.52C2087.98 718.03 2088.56 705.244 2084.51 693.083C2080.72 681.709 2071.4 673.89 2060.21 670.192C2045.64 665.376 2027.56 667.372 2012.29 667.469L1927.28 668.015C1911.92 668.1 1881.19 670.312 1868.48 663.719C1860.35 659.54 1854.28 652.215 1851.68 643.447C1844.61 619.139 1856.99 599.671 1881.45 594.38Z"/><path fill="#7F0621" d="M1516.39 594.479C1518.75 594.197 1521.12 594.004 1523.49 593.9C1529.95 593.61 1536.44 593.63 1542.91 593.624C1579.01 593.595 1615.12 593.885 1651.22 593.872C1673.88 593.864 1696.84 594.168 1718.85 600.188C1736.51 605.006 1752.72 614.079 1766.06 626.612C1799.37 657.404 1809.08 694.433 1811.43 738.004C1813.92 783.997 1805.62 833.16 1773.1 868.215C1748.05 895.025 1713.32 910.696 1676.64 911.732C1650.68 912.666 1622.21 911.361 1595.78 911.76C1570.3 911.216 1543.67 912.999 1518.38 909.843C1484.71 905.642 1489.89 864.758 1490.15 841.494C1490.19 830.163 1490.16 818.831 1490.07 807.5C1490.01 782.97 1489.04 758.436 1489.17 733.875C1489.27 714.79 1495.46 689.367 1518 685.962C1537.04 683.087 1557.82 692.586 1561.45 713.181C1564.77 732.052 1563.7 749.926 1563.73 769.005C1563.97 791.504 1563.98 814.005 1563.75 836.504C1584.33 836.186 1605.08 836.636 1625.76 836.427C1647.83 836.069 1674.32 838.75 1695.5 832.521C1744.21 818.204 1740.66 745.51 1730.55 706.521C1729.49 702.447 1726.49 696.298 1724.35 692.687C1705.88 661.533 1662.24 667.418 1631.36 667.829L1551.14 668.469C1537.32 668.537 1519.11 669.555 1506.42 663.13C1486.93 653.257 1487.02 626.548 1495.03 609.167C1498.56 601.52 1508.64 596.74 1516.39 594.479Z"/><path fill="#7F0621" d="M831.211 595.446L983.428 595.441C1008.55 595.442 1033.28 595.019 1058.55 596.429C1083.57 596.636 1091.6 636.779 1080.45 653.652C1069.26 670.593 1048.23 690.475 1033.87 705.329L954.887 788.371C942.432 801.436 921.33 822.01 910.873 835.002L910.094 835.98C957.702 837.128 1005.22 834.768 1053.31 836.603C1086.03 837.851 1091.57 873.929 1077.84 897.637C1072.7 906.523 1062.09 909.871 1052.4 911.605C1036.97 912.483 1016.2 911.961 1000.51 911.969L907.686 911.937C889.975 911.867 872.264 911.895 854.554 912.021C842.193 912.127 831.1 911.868 818.527 911.516C793.81 910.825 780.468 870.053 793.138 852.488C812.101 827.406 836.112 805.502 857.437 782.363C891.94 744.925 927.917 708.26 961.806 670.328C918.414 668.26 870.363 672.805 827.689 669.492C790.499 666.604 781.307 603.029 831.211 595.446Z"/><path fill="#7F0621" d="M314.834 700.37C326.229 699.596 344.295 700.076 356.121 700.084L433.354 700.161L504.26 700.275C517.429 700.302 539.756 699.49 551.982 702.193C553.849 707.896 524.69 764.333 520.309 773.447C501.756 811.867 483.678 850.515 466.079 889.382C465.867 889.593 461.21 898.512 460.748 899.405C456.074 908.542 451.626 917.793 447.409 927.15C442.45 938.325 434.914 961.39 426.715 969.076L425.304 968.453C415.259 955.519 313.91 717.895 312.399 706.409C312.005 703.418 313.069 702.457 314.834 700.37Z"/><path fill="#D53349" d="M497.216 970.997C493.765 968.885 491.063 965.878 489.925 961.957C490.518 959.664 490.005 960.134 491.433 958.487C493.732 955.834 501.414 954.596 504.964 954.602C535.522 954.649 566.456 954.736 596.98 954.776L789.977 954.942L1316.53 955.146C1349.44 953.954 1387.87 954.956 1421.33 954.968L1615.93 954.962L2194.46 954.979L2194.17 955.538C2198.53 955.674 2202.11 955.461 2206.17 956.955C2206.5 957.651 2206.67 967.314 2206.73 969.409C2199.82 970.801 2165.37 970.559 2155.82 970.35C2129.66 969.775 2100.2 971.206 2074.4 970.063C2029.79 971.841 1973.91 970.204 1928.58 970.254L1640.88 970.739L1416.83 970.88L1346.47 970.951C1335.34 970.972 1318.86 971.511 1308.37 970.819C1253.73 972.29 1193.29 971.295 1138.19 971.409L777.876 971.529L589.254 971.723L532.847 971.766C522.128 971.769 507.481 972.198 497.216 970.997Z"/><path fill="#7F0621" d="M497.216 970.997C493.765 968.885 491.063 965.878 489.925 961.957C490.518 959.664 490.005 960.134 491.433 958.487C493.732 955.834 501.414 954.596 504.964 954.602C535.522 954.649 566.456 954.736 596.98 954.776L789.977 954.942L1316.53 955.146C1307.13 956.396 1285.61 956.006 1275.44 956.049L1201.75 956.352C1166.55 956.515 1131.99 958.997 1096.91 957.807C1063.43 956.671 1029.64 958.032 996.13 957.386L993.026 968.51L1206.79 970.135L1273.62 970.378C1281.68 970.394 1301.33 969.959 1308.37 970.819C1253.73 972.29 1193.29 971.295 1138.19 971.409L777.876 971.529L589.254 971.723L532.847 971.766C522.128 971.769 507.481 972.198 497.216 970.997Z"/><path fill="#D3AEB4" d="M2073.02 956.565L2194.17 955.538C2198.53 955.674 2202.11 955.461 2206.17 956.955C2206.5 957.651 2206.67 967.314 2206.73 969.409C2199.82 970.801 2165.37 970.559 2155.82 970.35C2129.66 969.775 2100.2 971.206 2074.4 970.063C2067.57 968.407 2058.85 968.29 2051.7 967.961C2061.18 963.528 2064.02 962.508 2073.02 956.565Z"/><path fill="#7F0621" d="M156.866 700.416C197.295 699.384 246.74 699.841 287.252 700.519C299.605 717.386 311.594 748.546 320.154 768.707C330.374 792.928 340.816 817.054 351.48 841.083C366.283 874.352 381.863 907.271 396.112 940.785C398.608 946.654 401.346 952.44 403.147 958.57C391.847 951.678 360.148 914.844 349.181 903.478L189.303 736.987C179.275 726.348 167.849 714.224 157.59 703.514C157.301 702.277 157.06 701.244 156.866 700.416Z"/><path fill="#D53349" d="M400.49 690.128C393.064 690.919 321.26 690.569 318.4 689.293C312.678 677.537 328.119 665.869 335.699 657.612C348.546 643.582 361.564 629.71 374.75 615.999C389.039 601.014 402.59 585.793 416.379 570.366C422.477 563.542 432.183 552.99 441.076 561.788C465.954 586.403 488.102 613.674 513.027 638.387C520.684 646.808 548.172 677.301 550.182 687.454C547.375 690.302 535.817 690.367 531.818 690.405L444.671 690.577C434.449 690.585 409.206 691.223 400.49 690.128Z"/><path fill="#7F0621" d="M513.027 638.387C520.684 646.808 548.172 677.301 550.182 687.454C547.375 690.302 535.817 690.367 531.818 690.405L444.671 690.577C434.449 690.585 409.206 691.223 400.49 690.128C419.679 689.873 499.858 652.176 513.027 638.387Z"/><defs><linearGradient id="gradient_0" gradientUnits="userSpaceOnUse" x1="987.27112" y1="1125.9614" x2="903.46344" y2="854.17786"><stop offset="0" stop-color="#B24F60" stop-opacity="0.98431373"/><stop offset="1" stop-color="#A80A36"/></linearGradient></defs><path fill="url(#gradient_0)" d="M458.658 986.236C532.2 984.16 613.062 985.516 687.111 985.569L1072.72 985.523L1428.49 985.48L1546.27 985.524C1568.58 985.538 1592.63 985.087 1614.71 985.917C1606.39 989.792 1457.11 987.151 1435.09 988.525C1422.71 989.297 1412.36 997.797 1400.31 999.148C1386.91 1000.65 1367.06 997.306 1354.84 1002.67C1337.48 1003.27 1316.81 1002.8 1299.18 1002.82L1190.57 1002.88L867.324 1002.88L586.132 1002.74L509.87 1002.28C493.461 1002.23 474.939 1002.57 458.72 1001.57C456.125 998.467 454.819 997.494 454.244 993.51C455.028 989.627 455.795 989.265 458.658 986.236Z"/><path fill="#7F0621" d="M582.749 700.434C619.774 699.644 659.048 700.003 696.178 700.09C692.715 704.749 684.101 713.263 679.851 717.701L643.497 755.288L499.89 904.206C483.588 921.113 458.708 949.76 442.694 964.057C446.576 955.354 455.394 941.438 460.185 932.047L502.474 847.817C509.781 833.493 515.807 819.042 522.755 804.657L569.959 707.947C573.78 706.309 578.869 702.7 582.749 700.434Z"/><path fill="#D53349" d="M522.578 630.402C509.736 615.705 496.792 600.638 483.85 586.067C476.195 577.448 454.348 555.278 449.356 546.314L450.431 545.206C457.656 543.194 610.255 542.811 613.801 544.199C615.369 547.378 614.548 547.702 613.693 551.795C606.491 574.462 595.321 602.195 586.925 625.211L574.836 657.946C573.219 662.458 571.415 669.353 569.683 673.283C560.163 675.808 529.023 637.936 522.578 630.402Z"/><path fill="#7F0621" d="M522.578 630.402C526.947 627.701 532.03 622.983 536.473 619.928C562.008 602.366 582.713 579.729 604.99 558.465C607.517 556.053 610.835 554.299 613.693 551.795C606.491 574.462 595.321 602.195 586.925 625.211L574.836 657.946C573.219 662.458 571.415 669.353 569.683 673.283C560.163 675.808 529.023 637.936 522.578 630.402Z"/><path fill="#D53349" d="M251.528 544.023C270.813 543.048 295.049 543.693 314.661 543.72C348.832 543.664 383.004 543.788 417.175 544.091C409.852 557.361 371.002 597.629 358.458 612.08C349.998 620.77 307.938 668.555 300.937 670.632C295.701 666.172 290.454 646.836 287.524 639.431L263.685 577.654C260.964 570.619 252.625 550.495 251.528 544.023Z"/><path fill="#D53349" d="M234.549 555.143C242.519 560.259 277.442 660.187 283.888 677.321C281.391 683.282 280.988 684.606 279.922 690.973C255.305 691.5 229.234 691.098 204.5 691.131C187.568 691.157 169.972 691.442 153.107 690.679C165.997 669.553 178.759 648.35 191.392 627.07C205.438 603.141 219.39 578.328 234.549 555.143Z"/><defs><linearGradient id="gradient_1" gradientUnits="userSpaceOnUse" x1="1696.4186" y1="1063.6942" x2="1660.5237" y2="927.87091"><stop offset="0" stop-color="#B77678" stop-opacity="0.96862745"/><stop offset="1" stop-color="#B25464"/></linearGradient></defs><path fill="url(#gradient_1)" d="M1614.71 985.917C1628.36 984.851 1653.42 985.607 1667.9 985.631L1766.55 985.744L2090.55 986.154C2103.8 986.122 2207.36 984.976 2211.04 986.876L2209.93 987.608C2201.14 986.489 2180.82 987.019 2170.8 987.02L2094.91 987.106L2010.47 987.105C1995.69 987.074 1980.95 986.957 1966.17 987.239C1956.21 987.428 1951.53 997.953 1947.05 999.333C1931.69 1004.06 1910.65 999.638 1894.79 1001.57L2083.77 1001.71L2134.66 1001.53C2142.31 1001.48 2159.43 1001.05 2166.38 1002.07C2147.75 1004.1 2099.99 1002.86 2078.94 1002.87L1907.28 1002.88L1354.84 1002.67C1367.06 997.306 1386.91 1000.65 1400.31 999.148C1412.36 997.797 1422.71 989.297 1435.09 988.525C1457.11 987.151 1606.39 989.792 1614.71 985.917Z"/><path fill="#7F0621" d="M625.714 553.428C635.41 558.665 684.009 671.377 698.033 690.435C684.353 691.484 663.916 690.788 649.75 690.731C628.774 690.728 606.956 690.987 586.066 690.326C583.657 687.073 581.107 683.963 578.569 680.81C582.316 672.749 584.557 663.323 587.615 654.87C592.197 642.207 597.267 629.785 601.759 617.089C608.792 597.211 615.625 571.784 625.714 553.428Z"/><path fill="#F2E8E9" fill-opacity="0.32549021" d="M458.658 986.236C462.006 983.326 538.422 984.042 547.126 984.012L721.927 983.967L1747.33 984.262L2055.19 984.911L2159.96 984.696C2175.04 984.665 2217.83 983.161 2230.34 986.769L2230.14 987.54C2223.53 989.017 2218.83 988.693 2212.14 988.577C2208.08 992.079 2204.86 995.227 2201.06 999.016C2208.95 999.093 2216.01 998.855 2223.75 1000.6L2224.03 1001.34C2202.51 1003.97 2171.72 1004.11 2149.74 1004.23L2055 1004.39L1752.02 1004.35L759.489 1004.71L562.117 1004.43L499.423 1004.2C490.922 1004.16 464.342 1005.25 458.72 1001.57C474.939 1002.57 493.461 1002.23 509.87 1002.28L586.132 1002.74L867.324 1002.88L1190.57 1002.88L1299.18 1002.82C1316.81 1002.8 1337.48 1003.27 1354.84 1002.67L1907.28 1002.88L2078.94 1002.87C2099.99 1002.86 2147.75 1004.1 2166.38 1002.07L2196.1 1001.69C2200.99 996.269 2204.55 992.527 2209.93 987.608L2211.04 986.876C2207.36 984.976 2103.8 986.122 2090.55 986.154L1766.55 985.744L1667.9 985.631C1653.42 985.607 1628.36 984.851 1614.71 985.917C1592.63 985.087 1568.58 985.538 1546.27 985.524L1428.49 985.48L1072.72 985.523L687.111 985.569C613.062 985.516 532.2 984.16 458.658 986.236Z"/><path fill="#D3AEB4" d="M2166.38 1002.07C2159.43 1001.05 2142.31 1001.48 2134.66 1001.53L2083.77 1001.71L1894.79 1001.57C1910.65 999.638 1931.69 1004.06 1947.05 999.333C1951.53 997.953 1956.21 987.428 1966.17 987.239C1980.95 986.957 1995.69 987.074 2010.47 987.105L2094.91 987.106L2170.8 987.02C2180.82 987.019 2201.14 986.489 2209.93 987.608C2204.55 992.527 2200.99 996.269 2196.1 1001.69L2166.38 1002.07Z"/><path fill="#F2E8E9" fill-opacity="0.28235295" d="M496.962 972.258C491.336 970.089 488.552 966.828 488.223 960.72C490.272 954.278 497.226 952.618 503.407 952.682C533.135 952.993 562.845 952.915 592.574 952.979L779.286 953.351L1843.79 953.406L2137.82 953.41L2213.95 953.62C2223.98 953.642 2246.44 953.131 2255.29 954.676L2255.9 955.837C2249.55 959.557 2217.81 954.259 2212.52 958.78L2212.28 960.069L2209.99 961.154C2210.77 958.05 2210.77 959.316 2209.03 955.864C2204.37 953.579 2199.62 954.474 2194.46 954.979L1615.93 954.962L1421.33 954.968C1387.87 954.956 1349.44 953.954 1316.53 955.146L789.977 954.942L596.98 954.776C566.456 954.736 535.522 954.649 504.964 954.602C501.414 954.596 493.732 955.834 491.433 958.487C490.005 960.134 490.518 959.664 489.925 961.957C491.063 965.878 493.765 968.885 497.216 970.997L496.962 972.258Z"/><path fill="#D3AEB4" fill-opacity="0.5411765" d="M2194.46 954.979C2199.62 954.474 2204.37 953.579 2209.03 955.864C2210.77 959.316 2210.77 958.05 2209.99 961.154C2207.55 963.575 2208.18 962.156 2207.92 965.51C2213.71 972.38 2237.29 965.915 2244.15 968.64L2244.05 969.909C2235.16 974.025 1979.9 971.993 1949.67 971.991L842.776 973.014L589.73 973.443C575.741 973.45 506.14 974.508 496.962 972.258L497.216 970.997C507.481 972.198 522.128 971.769 532.847 971.766L589.254 971.723L777.876 971.529L1138.19 971.409C1193.29 971.295 1253.73 972.29 1308.37 970.819C1318.86 971.511 1335.34 970.972 1346.47 970.951L1416.83 970.88L1640.88 970.739L1928.58 970.254C1973.91 970.204 2029.79 971.841 2074.4 970.063C2100.2 971.206 2129.66 969.775 2155.82 970.35C2165.37 970.559 2199.82 970.801 2206.73 969.409C2206.67 967.314 2206.5 957.651 2206.17 956.955C2202.11 955.461 2198.53 955.674 2194.17 955.538L2194.46 954.979Z"/></svg>